<?xml version="1.0" encoding="UTF-8" standalone="no"?>
<!DOCTYPE svg PUBLIC "-//W3C//DTD SVG 1.1//EN" "http://www.w3.org/Graphics/SVG/1.1/DTD/svg11.dtd">
<!-- Created with Vectornator (http://vectornator.io/) -->
<svg height="2048.0pt" stroke-miterlimit="10" style="fill-rule:nonzero;clip-rule:evenodd;stroke-linecap:round;stroke-linejoin:round;" version="1.1" viewBox="0 0 2048 2048" width="2048.0pt" xml:space="preserve" xmlns="http://www.w3.org/2000/svg" xmlns:xlink="http://www.w3.org/1999/xlink">
<defs/>
<g id="Layer-6">
<path d="M221.557 1038.12C221.557 667.008 522.4 366.165 893.508 366.165C1264.62 366.165 1565.46 667.008 1565.46 1038.12C1565.46 1409.22 1264.62 1710.07 893.508 1710.07C522.4 1710.07 221.557 1409.22 221.557 1038.12Z" fill="#ffffff" fill-rule="nonzero" opacity="1" stroke="#000000" stroke-linecap="butt" stroke-linejoin="round" stroke-width="27.2046"/>
<g fill="#000000" opacity="1" stroke="#000000" stroke-linecap="butt" stroke-linejoin="round" stroke-width="17.0166">
<path d="M803.374 1525.42L867.356 1528.56L866.722 1541.5L816.543 1539.04L814.978 1570.96L861.707 1573.25L861.073 1586.19L814.344 1583.9L812.188 1627.89L798.385 1627.22L803.374 1525.42Z"/>
<path d="M951.033 1526.65L963.366 1524.47L1024.04 1617.25L1008.17 1620.06L993.72 1597.03L945.948 1605.46L940.405 1632.02L924.528 1634.83L951.033 1526.65ZM986.656 1586L959.808 1543.23L959.524 1543.28L948.664 1592.71L986.656 1586Z"/>
<path d="M1059.46 1505.6L1072.18 1500.2L1106.94 1582.09L1150.01 1563.81L1155.07 1575.73L1099.29 1599.41L1059.46 1505.6Z"/>
<path d="M1167.47 1459.2L1178.79 1451.27L1229.82 1524.14L1268.14 1497.3L1275.57 1507.92L1225.93 1542.68L1167.47 1459.2Z"/>
<path d="M1324.5 1444.36C1328.94 1445.04 1333.13 1444.55 1337.07 1442.88C1341 1441.22 1344.36 1438.86 1347.15 1435.81C1348.7 1434.12 1350.02 1432.14 1351.11 1429.88C1352.2 1427.63 1352.88 1425.29 1353.15 1422.86C1353.41 1420.44 1353.19 1418.06 1352.47 1415.71C1351.76 1413.36 1350.37 1411.25 1348.32 1409.37C1345.42 1406.72 1342.36 1405.61 1339.16 1406.06C1335.95 1406.51 1332.59 1407.62 1329.06 1409.41C1325.54 1411.2 1321.83 1413.26 1317.93 1415.61C1314.02 1417.96 1309.97 1419.72 1305.78 1420.89C1301.59 1422.06 1297.21 1422.25 1292.66 1421.47C1288.11 1420.68 1283.39 1418.06 1278.51 1413.59C1276.31 1411.58 1274.41 1408.96 1272.81 1405.74C1271.21 1402.52 1270.32 1398.94 1270.14 1395.01C1269.97 1391.07 1270.67 1386.86 1272.23 1382.38C1273.8 1377.9 1276.66 1373.39 1280.81 1368.86C1284.56 1364.75 1288.73 1361.34 1293.29 1358.62C1297.86 1355.91 1303.17 1354.72 1309.23 1355.07L1309.19 1370.25C1306.04 1369.71 1302.8 1370.06 1299.46 1371.29C1296.12 1372.53 1293.08 1374.63 1290.36 1377.6C1287.77 1380.44 1285.99 1383.13 1285.02 1385.69C1284.04 1388.24 1283.62 1390.62 1283.75 1392.82C1283.88 1395.03 1284.41 1396.97 1285.34 1398.66C1286.26 1400.35 1287.29 1401.72 1288.42 1402.75C1291.61 1405.67 1294.89 1406.99 1298.28 1406.7C1301.66 1406.41 1305.13 1405.39 1308.69 1403.64C1312.24 1401.89 1315.92 1399.79 1319.72 1397.34C1323.51 1394.9 1327.42 1393.01 1331.44 1391.68C1335.45 1390.35 1339.6 1389.94 1343.87 1390.47C1348.13 1390.99 1352.53 1393.33 1357.06 1397.47C1360.68 1400.78 1363.3 1404.45 1364.94 1408.48C1366.58 1412.52 1367.32 1416.61 1367.16 1420.77C1367.01 1424.92 1366 1429.07 1364.15 1433.23C1362.3 1437.39 1359.72 1441.27 1356.41 1444.88C1352.01 1449.69 1346.98 1453.48 1341.33 1456.25C1335.68 1459.01 1329.91 1460.05 1324.04 1459.36L1324.5 1444.36Z"/>
</g>
<path d="M445.787 1031.66C445.787 900.548 502.034 782.575 591.715 700.553C671.496 627.584 777.738 583.069 894.376 583.069C1142.13 583.069 1342.97 783.909 1342.97 1031.66C1342.97 1279.41 1142.13 1480.25 894.376 1480.25C646.627 1480.25 445.787 1279.41 445.787 1031.66Z" fill="#ffffff" fill-rule="nonzero" opacity="1" stroke="#000000" stroke-linecap="butt" stroke-linejoin="round" stroke-width="30.5972"/>
<g opacity="1">
<path d="M1060.27 1152.6C1058.82 1152.6 1057.37 1152.67 1055.93 1152.81C1044.54 1153.93 1037.37 1162.66 1033.98 1172.93C1031.52 1180.36 1030.78 1188.31 1030.8 1196.1C1030.82 1206.17 1032.14 1216.42 1035.06 1226.08C1037.66 1234.72 1042.4 1245.43 1052.16 1247.68C1053.6 1248.01 1055.03 1248.09 1056.5 1248.04C1058.75 1247.93 1060.8 1247.16 1062.5 1245.94C1071.68 1242.15 1078.04 1232.44 1082.25 1223.89C1084 1220.35 1085.52 1216.69 1086.8 1212.95C1087.82 1209.96 1088.69 1206.92 1089.4 1203.85C1092.74 1189.36 1093.11 1170.94 1081.18 1160.07C1079.68 1158.71 1078.02 1157.51 1076.26 1156.51C1073.53 1154.97 1070.54 1153.91 1067.47 1153.3C1065.1 1152.82 1062.69 1152.6 1060.27 1152.6ZM1058.84 1174.55C1059.21 1174.54 1059.59 1174.57 1059.87 1174.56C1061.01 1174.52 1062.15 1174.57 1063.27 1174.77C1068.64 1175.74 1069.61 1181.36 1069.85 1186.04C1070.07 1190.41 1069.46 1194.82 1068.51 1199.08C1067.11 1205.3 1064.89 1211.4 1061.82 1216.98C1060.63 1219.14 1059.3 1221.27 1057.71 1223.18C1056.68 1220.69 1056.03 1218 1055.44 1215.47C1053.32 1206.4 1052.5 1196.72 1053.54 1187.45C1053.91 1184.12 1054.52 1180.71 1055.9 1177.63C1056.3 1176.72 1056.91 1175.27 1057.85 1174.75C1058.11 1174.6 1058.47 1174.56 1058.84 1174.55Z" fill="#000000" stroke="none"/>
</g>
<g opacity="1">
<path d="M1007.46 777.11C1006.75 777.072 1006.04 777.112 1005.31 777.22C990.799 779.379 976.494 782.496 962.453 786.763C920.606 799.482 881.93 821.103 846.601 846.623C779.26 895.268 723.603 957.819 669.688 1020.46C665.64 1025.17 666.169 1032.26 670.879 1036.31C675.588 1040.36 682.688 1039.83 686.736 1035.12C719.118 997.402 751.949 959.974 787.7 925.382C809.25 904.531 831.798 884.662 855.88 866.768C889.019 842.142 925.297 821.035 964.756 808.373C979.032 803.793 993.628 800.483 1008.45 798.268C1014.27 797.401 1018.28 791.994 1017.41 786.179C1016.65 781.091 1012.4 777.376 1007.46 777.11Z" fill="#000000" stroke="none"/>
</g>
<g opacity="1">
<g opacity="1">
<path d="M1268.01 416.433C1201.07 425.221 1101.99 513.417 1023.31 641.04C985.737 701.985 958.52 762.883 942.593 816.853C952.63 813.832 962.612 811.163 972.491 808.711C962.601 811.167 952.637 813.83 942.593 816.853C929.825 860.123 924.377 898.84 927.042 929.467C929.621 959.095 939.608 981.265 957.875 992.375C967.432 998.188 978.679 1000.59 991.175 1000.03C1008.61 999.253 1028.67 992.11 1050.05 980.291C1071.05 968.68 1093.34 952.317 1116.16 931.567C1123 925.355 1129.82 919.071 1136.7 912.127C1155.23 893.432 1173.89 872.115 1192.08 848.65C1201.85 836.046 1211.39 822.71 1220.83 808.906C1222.64 806.258 1224.39 803.438 1226.18 800.748C1231.89 792.19 1237.67 783.73 1243.19 774.77C1340.03 617.696 1369.28 460.418 1308.58 423.497C1297.19 416.574 1283.46 414.405 1268.01 416.433Z" fill="#000000" fill-rule="nonzero" opacity="1" stroke="#000000" stroke-linecap="butt" stroke-linejoin="round" stroke-width="27.978"/>
<path d="M1536.12 361.781C1461.76 362.015 1433.9 421.302 1394.75 472.469C1365.93 510.136 1711.32 805.751 1775.62 697C1839.93 588.249 1858.81 502.335 1671.78 404.375C1613.34 373.763 1569.93 361.675 1536.12 361.781ZM1550.28 462.906C1569.66 463.397 1593.99 470.234 1625.78 486.5C1727.5 538.551 1717.1 584.424 1681.94 642.562C1646.78 700.701 1452.23 538.471 1467.59 518.812C1488.98 491.447 1507.65 461.827 1550.28 462.906Z" fill="#ffffff" fill-rule="nonzero" opacity="1" stroke="#000000" stroke-linecap="butt" stroke-linejoin="round" stroke-width="27.978"/>
<path d="M957.887 992.354L1446.14 1289.32C1486.06 1313.6 1554.93 1279.78 1624.97 1209.11C1661.44 1172.32 1698.22 1125.49 1731.37 1071.71C1828.21 914.632 1857.52 757.413 1796.82 720.492L1308.57 423.522C1369.27 460.444 1340.01 617.693 1243.17 774.768C1210.02 828.549 1173.19 875.348 1136.72 912.142C1066.68 982.809 997.805 1016.63 957.887 992.354Z" fill="#ffffff" fill-rule="nonzero" opacity="1" stroke="#000000" stroke-linecap="butt" stroke-linejoin="round" stroke-width="27.978"/>
</g>
</g>
<g fill="none" opacity="1" stroke="#000000" stroke-linecap="butt" stroke-linejoin="round" stroke-width="18.6479">
<path d="M327.907 887.859C323.598 889.791 319.951 892.67 316.966 896.496C313.981 900.322 311.942 904.522 310.851 909.096C309.514 914.696 309.355 920.011 310.375 925.04C311.395 930.068 313.34 934.627 316.212 938.717C319.084 942.806 322.759 946.322 327.236 949.266C331.713 952.209 336.752 954.349 342.353 955.686C347.581 956.934 352.728 957.274 357.797 956.708C362.865 956.142 367.552 954.695 371.856 952.368C376.161 950.041 379.886 946.836 383.032 942.752C386.177 938.668 388.44 933.732 389.822 927.945C391.181 922.251 391.206 916.978 389.897 912.127C388.588 907.276 386.19 902.856 382.703 898.866L393.951 889.563C394.799 890.555 395.958 892.213 397.426 894.537C398.894 896.86 400.217 899.791 401.395 903.328C402.574 906.865 403.368 910.977 403.779 915.663C404.19 920.349 403.716 925.539 402.357 931.233C400.485 939.074 397.304 945.788 392.813 951.376C388.322 956.964 383.12 961.396 377.208 964.671C371.295 967.947 365.004 970.021 358.332 970.896C351.661 971.77 345.199 971.461 338.944 969.968C331.29 968.141 324.52 965.193 318.634 961.124C312.748 957.055 307.988 952.195 304.355 946.542C300.721 940.89 298.355 934.578 297.257 927.606C296.158 920.635 296.522 913.322 298.349 905.668C299.909 899.133 302.701 893.017 306.725 887.317C310.749 881.618 315.854 877.385 322.04 874.619L327.907 887.859Z"/>
<path d="M339.742 782.469L345.943 770.119L437.023 815.856L430.821 828.206L339.742 782.469Z"/>
<path d="M392.908 679.881L416.092 652.922C420.785 647.465 425.518 643.213 430.29 640.166C435.062 637.118 439.784 634.977 444.455 633.74C449.125 632.504 453.667 632.043 458.08 632.357C462.493 632.672 466.619 633.467 470.458 634.743C474.297 636.02 477.854 637.623 481.13 639.554C484.406 641.485 487.244 643.483 489.645 645.548C494.593 649.803 498.595 654.827 501.651 660.62C504.707 666.412 506.503 672.64 507.038 679.303C507.574 685.966 506.665 692.873 504.311 700.026C501.957 707.178 497.808 714.211 491.863 721.123L470.181 746.335L392.908 679.881ZM469.369 727.41L480.726 714.204C484.543 709.765 487.557 705.047 489.767 700.049C491.976 695.051 493.163 690.028 493.328 684.979C493.492 679.931 492.525 674.985 490.425 670.142C488.325 665.298 484.874 660.811 480.071 656.681C477.597 654.553 474.361 652.466 470.362 650.419C466.363 648.373 461.917 647.176 457.026 646.83C452.134 646.484 446.962 647.383 441.509 649.529C436.056 651.675 430.639 655.876 425.258 662.134L411.741 677.851L469.369 727.41Z"/>
<path d="M525.559 540.781L581.591 506.31L588.379 517.345L544.118 544.575L560.033 570.445L601.23 545.101L608.019 556.136L566.822 581.48L583.945 609.312L630.413 580.724L637.202 591.759L578.963 627.588L525.559 540.781Z"/>
<path d="M675.895 458.414L710.696 449.829C717.032 448.266 722.462 447.841 726.987 448.553C731.512 449.266 735.29 450.656 738.321 452.726C741.352 454.795 743.741 457.369 745.489 460.447C747.237 463.525 748.49 466.601 749.248 469.676C750.03 472.844 750.224 476.033 749.83 479.244C749.436 482.455 748.483 485.507 746.973 488.4C745.463 491.293 743.395 493.928 740.769 496.306C738.143 498.684 735.012 500.518 731.377 501.811L770.606 540.024L753.834 544.161L717.92 506.761L702.965 510.45L713.722 554.056L700.305 557.366L675.895 458.414ZM700.069 498.71L717.679 494.366C720.288 493.722 722.822 492.875 725.281 491.824C727.74 490.772 729.833 489.44 731.56 487.828C733.288 486.216 734.499 484.212 735.193 481.817C735.887 479.422 735.82 476.547 734.993 473.192C734.165 469.838 732.887 467.262 731.159 465.465C729.43 463.667 727.427 462.456 725.147 461.832C722.868 461.208 720.396 461.003 717.73 461.216C715.064 461.428 712.427 461.857 709.818 462.5L692.208 466.844L700.069 498.71Z"/>
</g>
<path d="M435.54 1018.62C441.524 1015.74 447.735 1013.15 454.085 1010.91C473.14 1004.19 493.717 1000.47 515.305 1000.47C532.955 1000.47 549.965 1003.04 566.022 1007.58C604.182 955.079 690.988 881.02 869.462 806.376C950.853 772.336 1125.58 736.183 1125.58 736.183L950.025 899.701C885.136 960.132 838.651 1036.85 814.757 1121.05C825.839 1123.65 836.686 1126.88 847.062 1131.09C863.144 1137.61 878.226 1146.03 892.129 1156.01C947.186 1195.54 983.195 1260.01 983.194 1332.96C983.195 1337.25 982.775 1341.43 982.53 1345.66C1034.65 1352.08 1075.87 1393.63 1082.7 1446.23" fill="none" opacity="1" stroke="#000000" stroke-linecap="butt" stroke-linejoin="round" stroke-width="27.978"/>
<path d="M449.063 1033.53C449.063 1064.06 452.113 1093.88 457.926 1122.7C499.282 1327.74 680.457 1482.14 897.675 1482.14M450.007 997.96C455.991 995.085 466.575 991.169 472.926 988.929C491.98 982.207 512.557 978.493 534.145 978.493C551.795 978.493 568.805 981.062 584.863 985.605C623.022 933.1 709.828 859.041 888.303 784.397C969.693 750.357 1144.75 813.969 1144.75 813.97L1062.66 872.647C1039.96 892.009 1016.06 920.722 1002.89 935.372C985.312 954.925 957.914 991.063 948.443 1012.22C939.266 1036.44 923.446 1068.55 918.478 1087.24C914.021 1104.01 908.178 1119.61 908.178 1119.61C908.178 1119.61 1002.04 1238.03 1002.03 1310.98C1002.03 1315.27 1001.62 1319.45 1001.37 1323.68C1053.49 1330.1 1098.21 1377.84 1105.04 1430.44C1105.04 1430.44 1011.67 1476.87 901.247 1481.37C813.937 1484.94 716.193 1454.79 643.886 1407.05C573.261 1360.42 504.481 1265.9 475.265 1187.15C436.739 1083.29 450.007 997.96 450.007 997.96Z" fill="#ffffff" fill-rule="nonzero" opacity="1" stroke="#000000" stroke-linecap="butt" stroke-linejoin="round" stroke-opacity="0.988739" stroke-width="24.4902"/>
<g opacity="1">
<path d="M573.726 814.969C572.007 814.924 570.283 815.048 568.588 815.346C556.688 817.437 548.487 827.311 543.896 837.875C539.145 848.806 537.323 860.901 536.598 872.721C536.299 877.587 536.423 882.445 536.245 887.31C536.145 890.057 535.792 892.803 535.554 895.539C534.714 905.198 533.435 918.618 543.477 924.26C544.259 924.7 545.084 925.069 545.934 925.359C546.792 925.652 547.679 925.867 548.576 925.998C549.933 926.195 551.325 926.134 552.691 926.008C554.742 925.753 556.613 925.019 558.23 923.953C563.974 922.203 569.325 919.499 574.117 915.726C580.458 910.735 585.458 904.323 590.172 897.836C592.734 894.309 595.231 890.753 597.344 886.933C602.515 877.584 605.67 867.01 605.678 856.282C605.69 840.303 598.004 822.193 581.931 816.501C579.837 815.76 577.656 815.274 575.443 815.07C574.872 815.018 574.299 814.984 573.726 814.969ZM573.175 840.426C573.342 840.412 573.506 840.429 573.667 840.493C575.829 841.346 577.347 843.746 578.326 845.721C580.744 850.597 581.125 856.329 580.312 861.643C578.949 870.547 574.307 877.66 569.105 884.797C566.872 887.86 564.518 891.051 561.779 893.791C561.927 892.127 562.068 890.464 562.142 888.796C562.3 885.268 562.146 881.726 562.264 878.193C562.526 870.371 563.222 862.391 565.238 854.802C566.326 850.706 567.72 846.498 570.229 843.026C570.727 842.338 572.001 840.528 573.175 840.426Z" fill="#000000" fill-opacity="0.988739" stroke="none"/>
</g>
<g opacity="1">
<path d="M1142.29 1238.96C1127.35 1239.19 1113.01 1247.05 1104.22 1259.02C1099.69 1265.2 1096.68 1272.39 1095.21 1279.9C1094.12 1285.52 1093.89 1291.28 1094.35 1296.99C1094.77 1302.21 1095.8 1307.41 1096.7 1312.56C1099.01 1325.75 1102.43 1341.07 1114.87 1348.43C1116.76 1349.55 1118.79 1350.43 1120.9 1351.05C1121.86 1351.33 1122.84 1351.54 1123.81 1351.71C1125.6 1352.52 1127.59 1352.96 1129.68 1352.88C1132.22 1352.77 1134.68 1352.34 1137.05 1351.4C1145.24 1348.13 1149.46 1340.3 1152 1332.33C1153.36 1328.09 1154.14 1323.54 1156.03 1319.5C1157.08 1317.26 1158.51 1315.14 1159.81 1313.04C1162.21 1309.16 1164.72 1305.36 1167 1301.41C1175 1287.6 1181.03 1269.61 1172.41 1254.63C1170.7 1251.66 1168.48 1249.01 1165.87 1246.8C1162.98 1244.35 1159.64 1242.47 1156.08 1241.18C1151.68 1239.58 1146.96 1238.88 1142.29 1238.96ZM1142.37 1264.32C1142.86 1264.31 1143.35 1264.33 1143.84 1264.36C1144.88 1264.43 1145.92 1264.62 1146.91 1264.94C1148.07 1265.32 1149.22 1265.93 1149.95 1266.95C1150.83 1268.18 1150.96 1269.87 1150.92 1271.34C1150.83 1274.3 1149.93 1277.23 1148.86 1279.96C1148.5 1280.86 1148.14 1281.69 1147.73 1282.57C1147.23 1283.65 1146.84 1284.42 1146.28 1285.48C1145.76 1286.47 1145.2 1287.45 1144.63 1288.41C1143.75 1289.93 1142.83 1291.43 1141.89 1292.92C1140.54 1295.07 1139.15 1297.2 1137.81 1299.36C1136.17 1302 1134.51 1304.66 1133.08 1307.42C1130.98 1311.52 1129.72 1315.97 1128.47 1320.38C1127.91 1322.35 1127.44 1324.58 1126.61 1326.55C1125.64 1325.45 1124.9 1323.62 1124.5 1322.61C1122.57 1317.74 1121.72 1312.45 1120.87 1307.32C1119.69 1300.2 1118.2 1293.06 1119.38 1285.83C1120.03 1281.84 1121.49 1277.96 1123.81 1274.63C1127.92 1268.71 1135.05 1264.39 1142.37 1264.32Z" fill="#000000" fill-opacity="0.988739" stroke="none"/>
</g>
<g opacity="1">
<path d="M1033.02 754.812C1032.21 754.862 1031.37 754.981 1030.55 755.202C1006.51 761.67 983.552 771.468 961.45 782.858C938.428 794.723 916.29 808.266 894.801 822.706C860.517 845.746 827.789 871.13 796.333 897.887C767.069 922.778 738.783 948.893 712.12 976.561C707.742 981.104 703.399 985.683 699.277 990.463C685.903 1005.97 673.833 1022.55 660.934 1038.45C654.603 1046.26 648.103 1053.95 641.14 1061.2C636.354 1066.19 631.345 1071.01 625.881 1075.25C624.273 1076.5 622.623 1077.7 620.919 1078.82C620.002 1079.42 619.098 1080.04 618.057 1080.4C614.372 1081.68 610.083 1081.26 606.292 1080.87C600.167 1080.23 594.136 1078.94 588.078 1077.87C582.838 1076.95 577.538 1076.1 572.205 1076.07C567.932 1076.05 563.621 1076.56 559.399 1077.19C544.512 1079.39 530.092 1084.31 516.373 1090.4C496.371 1099.28 477.622 1110.82 459.853 1123.54C454.016 1127.72 452.659 1135.84 456.842 1141.68C461.025 1147.52 469.163 1148.85 475.001 1144.67C491.324 1132.96 508.53 1122.31 526.911 1114.13C539.073 1108.72 551.905 1104.25 565.161 1102.55C567.663 1102.24 570.218 1101.92 572.744 1102C578.924 1102.19 585.08 1103.66 591.144 1104.75C601.68 1106.63 612.824 1108.42 623.391 1105.79C630.333 1104.06 636.185 1099.98 641.754 1095.64C653.413 1086.55 663.457 1075.48 672.978 1064.23C681.942 1053.64 690.432 1042.64 698.943 1031.69C708.28 1019.66 717.635 1007.72 728.123 996.671C754.779 968.585 783.194 942.124 812.596 916.937C843.245 890.682 875.159 865.814 908.629 843.244C929.302 829.304 950.583 816.207 972.751 804.771C993.29 794.175 1014.62 785.014 1036.97 778.992C1043.53 777.225 1047.41 770.466 1045.64 763.901C1044.1 758.156 1038.74 754.462 1033.02 754.812Z" fill="#000000" fill-opacity="0.988739" stroke="none"/>
</g>
<g opacity="1">
<path d="M1474.45 701.305C1470.81 701.463 1467.27 702.112 1463.77 703.112C1462.08 703.601 1460.55 704.411 1459.25 705.45C1436.95 714.312 1421.15 733.693 1406.32 751.879C1401.8 757.43 1397.27 762.959 1393.13 768.813C1384.68 780.766 1377.53 793.642 1372.08 807.23C1368.29 816.667 1365.31 826.44 1363.19 836.384C1350.84 894.295 1368.46 954.145 1394.45 1005.81C1395.47 1007.84 1396.43 1009.9 1397.59 1011.85C1400.34 1016.48 1403.6 1020.81 1406.86 1025.08C1411.42 1031.08 1416.18 1036.93 1421.05 1042.69C1433.87 1057.86 1447.36 1072.76 1462.41 1085.78C1464.31 1087.43 1466.24 1089.03 1468.22 1090.58C1476.7 1097.24 1488.05 1105.07 1499.37 1101.56C1507.2 1099.14 1513.35 1092.7 1518.57 1086.68C1525.05 1079.2 1530.74 1071.04 1536.36 1062.91C1539.08 1058.97 1541.73 1054.96 1544.61 1051.14C1547.18 1047.75 1549.83 1044.45 1552.26 1040.96C1557.2 1033.85 1561.58 1026.36 1565.45 1018.63C1574.49 1000.55 1580.7 981.119 1584.69 961.329C1590.47 932.652 1591.67 903.016 1588.87 873.917C1585.97 843.78 1578.85 813.679 1566.03 786.164C1559.37 771.847 1551.03 758.225 1541.59 745.573C1533.3 734.458 1523.95 723.906 1512.89 715.458C1501.89 707.045 1488.61 700.687 1474.45 701.305ZM1477.02 727.337C1482.97 727.506 1488.6 730.273 1493.69 733.643C1499.47 737.48 1504.59 742.263 1509.33 747.317C1516.31 754.762 1522.47 762.962 1528.07 771.479C1533.91 780.35 1539.17 789.623 1543.54 799.307C1555.62 826.081 1561.79 855.456 1563.78 884.671C1565.57 910.802 1563.91 937.328 1558.05 962.883C1553.62 982.2 1546.74 1001.12 1536.56 1018.17C1531.21 1027.15 1524.53 1035.15 1518.62 1043.75C1512.98 1051.96 1507.42 1060.29 1501.09 1068C1499.28 1070.21 1497.4 1072.38 1495.35 1074.38C1494.55 1075.17 1493.7 1075.92 1492.79 1076.61C1492.78 1076.6 1492.77 1076.6 1492.76 1076.59C1491.7 1076.09 1490.68 1075.49 1489.68 1074.86C1486.61 1072.93 1483.73 1070.67 1480.94 1068.35C1472.72 1061.52 1465.14 1053.92 1457.81 1046.15C1449 1036.82 1440.55 1027.13 1432.48 1017.15C1427.9 1011.46 1423.19 1005.71 1419.34 999.481C1417.42 996.374 1415.96 992.961 1414.35 989.687C1411 982.859 1407.87 975.912 1404.93 968.899C1387.63 927.614 1377.6 881.228 1388.41 836.915C1390.3 829.154 1392.81 821.535 1395.9 814.168C1400.5 803.186 1406.4 792.753 1413.26 783.03C1417.07 777.638 1421.25 772.562 1425.42 767.448C1433.03 758.109 1440.64 748.638 1449.62 740.556C1455.06 735.658 1461.03 731.343 1467.79 728.563C1468.85 728.528 1469.91 728.413 1470.96 728.108C1473.01 727.513 1475.03 727.281 1477.02 727.337Z" fill="#000000" fill-opacity="0.988739" stroke="none"/>
</g>
<g opacity="1">
<path d="M1417.76 592.483C1413.58 592.425 1409.45 594.375 1406.89 598.059C1402.79 603.954 1404.24 612.056 1410.13 616.159C1420.3 623.205 1429.2 631.97 1437.26 641.331C1446.17 651.694 1454.19 663.14 1459.75 675.669C1464.62 686.627 1467.97 699.529 1463.55 711.174C1461.13 717.53 1464.33 724.643 1470.68 727.058C1477.04 729.472 1484.15 726.276 1486.56 719.92C1493.18 702.501 1490.13 684.113 1483.3 667.27C1477.4 652.732 1468.77 639.304 1458.93 627.138C1449.09 614.98 1437.83 603.795 1424.99 594.816C1422.78 593.277 1420.26 592.518 1417.76 592.483Z" fill="#000000" fill-opacity="0.988739" stroke="none"/>
</g>
<g opacity="1">
<path d="M1475.78 700.779C1473.42 700.662 1471 701.233 1468.82 702.555C1463 706.079 1461.15 713.642 1464.67 719.457C1472.22 731.899 1471.51 747.591 1469.84 761.506C1467.77 778.674 1463.35 795.442 1460.68 812.51C1459.43 820.508 1458.91 828.509 1458.58 836.59C1455.2 919.593 1475.14 1001.15 1479.27 1083.74C1479.64 1090.91 1485.75 1096.42 1492.92 1096.06C1500.09 1095.69 1505.61 1089.58 1505.24 1082.41C1503.57 1050.09 1499.68 1017.98 1495.46 985.914C1488.8 935.415 1481.56 884.636 1483.63 833.56C1483.78 829.897 1483.96 826.239 1484.37 822.594C1485.36 813.712 1487.18 804.929 1488.91 796.167C1491.52 782.949 1494.14 769.675 1495.12 756.216C1496.37 739.156 1494.75 721.603 1485.72 706.69C1483.52 703.056 1479.73 700.973 1475.78 700.779Z" fill="#000000" fill-opacity="0.988739" stroke="none"/>
</g>
<g opacity="1">
<path d="M1465.53 877.686C1462.77 877.726 1460.01 878.689 1457.75 880.615C1448.39 888.554 1439.85 897.394 1431.73 906.585C1422.6 916.922 1414.07 927.879 1406.8 939.617C1399.01 952.211 1392.11 966.309 1391.04 981.3C1390.55 988.465 1395.96 994.669 1403.13 995.158C1410.29 995.647 1416.5 990.237 1416.99 983.072C1417.31 978.011 1418.89 973.133 1420.82 968.471C1423.18 962.741 1426.15 957.245 1429.36 951.948C1434.73 943.092 1440.83 934.696 1447.37 926.669C1455.35 916.87 1464.06 907.579 1473.69 899.378C1478.87 894.975 1479.5 887.203 1475.1 882.023C1472.62 879.108 1469.08 877.634 1465.53 877.686Z" fill="#000000" fill-opacity="0.988739" stroke="none"/>
</g>
<g opacity="1">
<path d="M1477.52 919.769C1471.8 919.971 1466.81 924.166 1465.83 930.033C1464.7 936.738 1469.22 943.088 1475.93 944.216C1481.36 945.138 1486.58 946.675 1491.57 949.032C1501.37 953.656 1509.72 960.835 1517.2 968.565C1525.55 977.194 1533.04 986.609 1540.58 995.935C1545.12 1001.51 1553.31 1002.35 1558.88 997.812C1564.45 993.278 1565.29 985.087 1560.76 979.517C1543.09 957.952 1524.5 935.376 1497.83 924.812C1492.07 922.529 1486.11 920.954 1480.01 919.936C1479.17 919.795 1478.34 919.741 1477.52 919.769Z" fill="#000000" fill-opacity="0.988739" stroke="none"/>
</g>
<g opacity="1">
<path d="M1488.32 803.302C1484.27 803.224 1480.15 803.66 1476 804.709C1469.41 806.378 1465.42 813.074 1467.09 819.666C1468.76 826.257 1475.45 830.245 1482.05 828.577C1492.96 825.802 1504.29 832.263 1512.65 838.703C1524.14 847.56 1533.8 858.761 1542.05 870.64C1547.54 878.54 1552.69 886.898 1556.09 895.933C1558.64 902.646 1566.15 906.019 1572.86 903.47C1579.58 900.92 1582.95 893.412 1580.41 886.699C1575.47 873.804 1567.93 861.854 1559.59 850.909C1549.21 837.278 1536.96 824.546 1522.53 815.177C1512.08 808.394 1500.48 803.538 1488.32 803.302Z" fill="#000000" fill-opacity="0.988739" stroke="none"/>
</g>
<g opacity="1">
<path d="M1469.4 767.336C1468.58 767.308 1467.75 767.364 1466.91 767.506C1457.61 769.068 1448.54 771.51 1439.82 775.128C1415.01 785.424 1394.68 803.914 1378.63 825.145C1371.67 834.357 1365.49 844.134 1359.7 854.114C1356.11 860.333 1358.24 868.287 1364.46 871.878C1370.68 875.469 1378.63 873.336 1382.22 867.117C1398.18 839.338 1418.98 810.851 1449.38 797.929C1456.34 794.973 1463.58 793.047 1471.01 791.781C1477.72 790.647 1482.23 784.296 1481.1 777.592C1480.11 771.725 1475.12 767.533 1469.4 767.336Z" fill="#000000" fill-opacity="0.988739" stroke="none"/>
</g>
<g opacity="1">
<path d="M1365.19 885.636C1363.2 885.587 1361.17 886.016 1359.28 886.984C1336.83 898.456 1318.81 916.58 1304.75 937.303C1286.98 963.481 1275.22 994.005 1270.22 1025.21C1266.56 1048.03 1266.69 1071.59 1272.55 1094.03C1274.37 1100.98 1281.48 1105.13 1288.43 1103.31C1295.38 1101.49 1299.53 1094.38 1297.71 1087.43C1293.45 1071.29 1292.88 1054.52 1294.58 1037.96C1296.44 1019.92 1300.98 1002.14 1307.68 985.292C1312.96 972.013 1319.64 959.203 1327.88 947.515C1339.06 931.665 1353.14 917.807 1370.5 908.908C1376.56 905.811 1378.95 898.388 1375.86 892.336C1373.73 888.174 1369.55 885.744 1365.19 885.636Z" fill="#000000" fill-opacity="0.988739" stroke="none"/>
</g>
<g opacity="1">
<path d="M1431.75 1041.13C1429.25 1041.11 1426.71 1041.82 1424.47 1043.31C1406.96 1055.03 1389.43 1067.51 1369.55 1074.92C1359.49 1078.67 1348.77 1081.22 1338.06 1082.17C1333.21 1082.6 1328.29 1082.49 1323.43 1082.41C1316.92 1082.31 1310.39 1082.07 1303.91 1081.45C1303.45 1081.41 1302.99 1081.36 1302.53 1081.31C1299.25 1076.92 1293.31 1075.11 1288 1077.29C1284.7 1078.65 1281.58 1080.64 1279.74 1083.82C1275.75 1090.74 1278.52 1098.79 1285.35 1102.42C1290.52 1105.17 1297.42 1105.64 1303.1 1106.14C1312.68 1106.99 1322.34 1107.31 1331.96 1107.26C1352.79 1107.17 1373.58 1101.92 1392.38 1093.06C1408.81 1085.32 1423.81 1074.97 1438.89 1064.95C1444.87 1060.97 1446.48 1052.89 1442.5 1046.92C1440.01 1043.18 1435.93 1041.16 1431.75 1041.13Z" fill="#000000" fill-opacity="0.988739" stroke="none"/>
</g>
<g opacity="1">
<path d="M1401.88 968.988C1400.28 968.918 1398.64 969.157 1397.04 969.75C1376.66 977.319 1358.88 990.412 1342.98 1005.03C1318.02 1027.99 1297.45 1055.24 1278.37 1083.14C1274.32 1089.07 1275.85 1097.16 1281.79 1101.21C1287.72 1105.25 1295.81 1103.72 1299.85 1097.78C1317.14 1072.31 1335.6 1047.17 1357.69 1025.61C1371.58 1012.08 1387.29 999.665 1405.63 992.831C1412 990.461 1415.25 983.372 1412.88 976.999C1411.1 972.219 1406.67 969.199 1401.88 968.988Z" fill="#000000" fill-opacity="0.988739" stroke="none"/>
</g>
<g opacity="1">
<path d="M1347.56 957.149C1344.93 957.212 1342.29 957.411 1339.65 957.772C1333.89 958.561 1328.26 960.278 1322.82 962.266C1315.42 964.968 1308.33 968.54 1300.39 969.378C1293.63 970.093 1288.73 976.155 1289.44 982.916C1290.16 989.678 1296.22 994.582 1302.98 993.867C1308.37 993.296 1313.56 992.05 1318.68 990.293C1323.86 988.518 1328.9 986.347 1334.11 984.662C1334.95 984.391 1335.77 984.061 1336.62 983.848C1338.45 983.391 1340.38 983.055 1342.23 982.741C1343.92 982.455 1345.73 982.465 1347.43 982.464C1352.11 982.463 1356.75 983.088 1361.34 983.914C1373.18 986.044 1384.73 989.587 1396.48 992.148C1403.5 993.659 1410.41 989.193 1411.92 982.172C1413.43 975.151 1408.97 968.234 1401.95 966.724C1384.1 962.94 1365.97 956.709 1347.56 957.149Z" fill="#000000" fill-opacity="0.988739" stroke="none"/>
</g>
<g opacity="1">
<path d="M1093.9 767.228C1091.53 767.378 1089.19 768.216 1087.17 769.775C1056.74 793.268 1024.89 815.008 995.801 840.214C988.147 846.846 980.881 853.902 973.577 860.914C961.401 872.602 949.462 884.537 937.703 896.644C898.607 936.898 861.988 979.833 830.743 1026.51C821.323 1040.58 812.519 1055.03 804.483 1069.94C791.917 1093.25 781.036 1117.42 770.51 1141.7C768.653 1145.99 766.718 1150.26 765.039 1154.62C762.293 1161.75 759.895 1169.01 756.788 1176C755.446 1179.02 753.986 1182.04 752.16 1184.81C751.742 1185.44 751.304 1186.07 750.815 1186.65C750.667 1186.83 750.493 1187.02 750.331 1187.19C750.253 1187.27 750.084 1187.41 750.08 1187.42C735.815 1194.99 719.986 1198.47 704.77 1203.55C702.139 1204.43 699.543 1205.41 696.932 1206.35C695.231 1206.96 693.47 1207.52 691.802 1208.21C689.664 1209.1 687.581 1210.17 685.488 1211.16C683.453 1212.11 681.392 1213.02 679.389 1214.04C675.047 1216.26 670.856 1218.9 666.761 1221.54C657.963 1227.22 649.618 1233.57 641.703 1240.43C615.897 1262.78 594.926 1289.91 574.492 1317.07C570.178 1322.82 571.334 1330.97 577.075 1335.28C582.817 1339.6 590.967 1338.44 595.282 1332.7C621.789 1297.4 650.018 1260.48 689.075 1238.29C691.499 1236.92 694.017 1235.77 696.537 1234.58C698.251 1233.77 699.953 1232.85 701.703 1232.12C703.979 1231.18 706.379 1230.46 708.699 1229.63C720.316 1225.46 732.314 1222.44 743.927 1218.24C748.76 1216.49 753.537 1214.55 758.151 1212.29C760.19 1211.28 762.254 1210.28 764.16 1209.04C766.586 1207.46 768.708 1205.44 770.564 1203.23C773.913 1199.24 776.462 1194.61 778.707 1189.94C781.998 1183.08 784.599 1175.93 787.192 1168.79C790.163 1160.6 793.725 1152.65 797.183 1144.66C807.044 1121.88 817.386 1099.28 829.308 1077.49C835.83 1065.57 842.89 1053.96 850.366 1042.62C881.148 995.923 917.53 953.115 956.393 912.985C967.932 901.07 979.691 889.35 991.64 877.846C998.323 871.412 1004.98 864.938 1011.98 858.851C1040.68 833.916 1072.17 812.467 1102.22 789.254C1107.6 785.099 1108.6 777.363 1104.45 771.981C1101.85 768.617 1097.84 766.977 1093.9 767.228Z" fill="#000000" fill-opacity="0.988739" stroke="none"/>
</g>
<g opacity="1">
<path d="M906.759 1114.24C901.044 1113.88 895.673 1117.57 894.124 1123.32C888.832 1142.91 884.17 1162.65 879.858 1182.48C874.729 1206.07 870.047 1229.77 864.771 1253.33C863.48 1259.09 862.123 1264.85 860.923 1270.63C858.655 1281.57 856.663 1292.57 854.706 1303.57C853.797 1308.68 852.899 1313.8 852.019 1318.91C851.721 1320.64 851.433 1322.36 851.139 1324.09C851.038 1324.69 850.792 1325.4 850.811 1326.01C850.86 1327.66 850.816 1329.33 850.975 1330.98C851.027 1331.52 851.284 1332.03 851.444 1332.55C851.807 1333.74 852.296 1334.9 852.711 1336.07C853.922 1339.49 855.098 1342.91 856.254 1346.35C859.647 1356.43 863.132 1366.67 865.182 1377.12C867.568 1389.29 868.182 1401.85 867.986 1414.23C867.685 1433.19 865.202 1452.19 860.302 1470.52C858.453 1477.46 862.583 1484.59 869.523 1486.44C876.462 1488.29 883.582 1484.16 885.431 1477.22C890.462 1458.26 893.168 1438.71 893.796 1419.12C894.286 1403.81 893.526 1388.39 890.722 1373.31C888.572 1361.74 884.718 1350.43 880.938 1339.31C879.763 1335.85 878.547 1332.41 877.313 1328.97C877.058 1328.26 876.807 1327.56 876.55 1326.85C876.813 1325.24 877.07 1323.64 877.336 1322.03C878.113 1317.33 878.904 1312.63 879.706 1307.94C882.257 1293.01 884.975 1278.13 888.211 1263.33C894.538 1234.41 900.027 1205.3 906.454 1176.4C909.932 1160.76 913.728 1145.2 917.893 1129.73C919.663 1123.17 915.776 1116.4 909.211 1114.63C908.391 1114.41 907.576 1114.29 906.759 1114.24Z" fill="#000000" fill-opacity="0.988739" stroke="none"/>
</g>
</g>
</svg>
